{
  "accessors": [
    {
      "bufferView": 2,
      "componentType": 5126,
      "count": 3733,
      "max": [
        0.3930055797100067,
        1.0000001192092896,
        0.5843453407287598
      ],
      "min": [
        -0.44274982810020447,
        -1.0000001192092896,
        -0.057354968041181564
      ],
      "type": "VEC3"
    },
    {
      "bufferView": 2,
      "byteOffset": 44796,
      "componentType": 5126,
      "count": 3733,
      "max": [
        1.0,
        1.0,
        1.0
      ],
      "min": [
        -0.999012291431427,
        -1.0,
        -1.0
      ],
      "type": "VEC3"
    },
    {
      "bufferView": 3,
      "componentType": 5126,
      "count": 3733,
      "max": [
        0.9949368834495544,
        0.9608414769172668,
        0.9980551600456238,
        1.0
      ],
      "min": [
        -0.9948040246963501,
        -0.9999999403953552,
        -0.9990230202674866,
        1.0
      ],
      "type": "VEC4"
    },
    {
      "bufferView": 1,
      "componentType": 5126,
      "count": 3733,
      "max": [
        0.9980434775352478,
        0.9652583599090576
      ],
      "min": [
        0.012206882238388062,
        0.015909284353256226
      ],
      "type": "VEC2"
    },
    {
      "bufferView": 1,
      "byteOffset": 29864,
      "componentType": 5126,
      "count": 3733,
      "max": [
        0.9980434775352478,
        0.9652583599090576
      ],
      "min": [
        0.012206882238388062,
        0.015909284353256226
      ],
      "type": "VEC2"
    },
    {
      "bufferView": 1,
      "byteOffset": 59728,
      "componentType": 5126,
      "count": 3733,
      "max": [
        0.9980434775352478,
        0.9652583599090576
      ],
      "min": [
        0.012206882238388062,
        0.015909284353256226
      ],
      "type": "VEC2"
    },
    {
      "bufferView": 0,
      "componentType": 5125,
      "count": 21408,
      "type": "SCALAR"
    }
  ],
  "asset": {
    "extras": {
      "author": "buresin.eduard (https://sketchfab.com/buresin.eduard)",
      "license": "CC-BY-4.0 (http://creativecommons.org/licenses/by/4.0/)",
      "source": "https://sketchfab.com/3d-models/sofa-couch-74a21b08a3ae458e89b4000e6e96f6c3",
      "title": "Sofa, Couch"
    },
    "generator": "Sketchfab-13.68.0",
    "version": "2.0"
  },
  "bufferViews": [
    {
      "buffer": 0,
      "byteLength": 85632,
      "name": "floatBufferViews",
      "target": 34963
    },
    {
      "buffer": 0,
      "byteLength": 89592,
      "byteOffset": 85632,
      "byteStride": 8,
      "name": "floatBufferViews",
      "target": 34962
    },
    {
      "buffer": 0,
      "byteLength": 89592,
      "byteOffset": 175224,
      "byteStride": 12,
      "name": "floatBufferViews",
      "target": 34962
    },
    {
      "buffer": 0,
      "byteLength": 59728,
      "byteOffset": 264816,
      "byteStride": 16,
      "name": "floatBufferViews",
      "target": 34962
    }
  ],
  "buffers": [
    {
      "byteLength": 324544,
      "uri": "scene.bin"
    }
  ],
  "images": [
    {
      "uri": "textures/Material_baseColor.png"
    },
    {
      "uri": "textures/Material_metallicRoughness.png"
    },
    {
      "uri": "textures/Material_normal.png"
    }
  ],
  "materials": [
    {
      "doubleSided": true,
      "name": "Material",
      "normalTexture": {
        "index": 2
      },
      "pbrMetallicRoughness": {
        "baseColorTexture": {
          "index": 0
        },
        "metallicRoughnessTexture": {
          "index": 1
        }
      }
    }
  ],
  "meshes": [
    {
      "name": "BestSofa_Material_0",
      "primitives": [
        {
          "attributes": {
            "NORMAL": 1,
            "POSITION": 0,
            "TANGENT": 2,
            "TEXCOORD_0": 3,
            "TEXCOORD_1": 4,
            "TEXCOORD_2": 5
          },
          "indices": 6,
          "material": 0,
          "mode": 4
        }
      ]
    }
  ],
  "nodes": [
    {
      "children": [
        1
      ],
      "matrix": [
        1.0,
        0.0,
        0.0,
        0.0,
        0.0,
        2.220446049250313e-16,
        -1.0,
        0.0,
        0.0,
        1.0,
        2.220446049250313e-16,
        0.0,
        0.0,
        0.0,
        0.0,
        1.0
      ],
      "name": "Sketchfab_model"
    },
    {
      "children": [
        2
      ],
      "matrix": [
        0.009999999776482582,
        0.0,
        0.0,
        0.0,
        0.0,
        0.0,
        0.009999999776482582,
        0.0,
        0.0,
        -0.009999999776482582,
        0.0,
        0.0,
        0.0,
        0.0,
        0.0,
        1.0
      ],
      "name": "3279ea8802eb4d9a9a98b0da0347a5fd.fbx"
    },
    {
      "children": [
        3
      ],
      "name": "RootNode"
    },
    {
      "children": [
        4
      ],
      "matrix": [
        100.0,
        0.0,
        0.0,
        0.0,
        0.0,
        -1.629206793918314e-05,
        -99.99999999999868,
        0.0,
        0.0,
        99.99999999999868,
        -1.629206793918314e-05,
        0.0,
        0.0,
        0.0,
        0.0,
        1.0
      ],
      "name": "BestSofa"
    },
    {
      "mesh": 0,
      "name": "BestSofa_Material_0"
    }
  ],
  "samplers": [
    {
      "magFilter": 9729,
      "minFilter": 9987,
      "wrapS": 10497,
      "wrapT": 10497
    }
  ],
  "scene": 0,
  "scenes": [
    {
      "name": "Sketchfab_Scene",
      "nodes": [
        0
      ]
    }
  ],
  "textures": [
    {
      "sampler": 0,
      "source": 0
    },
    {
      "sampler": 0,
      "source": 1
    },
    {
      "sampler": 0,
      "source": 2
    }
  ]
}
